<svg xmlns="http://www.w3.org/2000/svg" width="24" height="24" viewBox="0 0 24 24">
    <path fill="#F3423C" d="M4.107 22c.165 0 .307-.062.427-.185.12-.124.18-.27.18-.439v-7.953c.317-.22.696-.413 1.139-.575.442-.162.942-.244 1.499-.244.96 0 1.774.098 2.438.293.664.195 1.28.409 1.85.643.569.234 1.138.448 1.707.643.57.195 1.233.293 1.992.293.76 0 1.455-.098 2.087-.293.633-.195 1.177-.41 1.632-.643.455-.234.81-.448 1.063-.643l.379-.293V2l-.398.292c-.266.195-.636.41-1.11.644-.475.234-1.038.448-1.689.643s-1.357.292-2.116.292c-.758 0-1.407-.097-1.944-.292-.538-.195-1.072-.41-1.603-.643-.532-.234-1.114-.449-1.746-.644C9.262 2.097 8.464 2 7.504 2c-1.24 0-2.217.322-2.932.965L3.5 3.93v17.446c0 .17.06.315.18.439.12.123.263.185.427.185zm11.232-8.772c-.594 0-1.12-.071-1.574-.214-.456-.143-.943-.325-1.461-.546-.633-.26-1.335-.51-2.106-.75-.772-.241-1.72-.361-2.846-.361-.519 0-1 .061-1.442.185-.443.123-.842.27-1.196.439V4.437c.228-.208.582-.458 1.063-.75.48-.293 1.056-.44 1.726-.44.886 0 1.616.095 2.192.283.575.189 1.129.4 1.66.634.531.234 1.094.451 1.689.653.594.201 1.309.302 2.143.302.81 0 1.563-.098 2.258-.292.696-.195 1.31-.416 1.84-.663v7.817c-.34.22-.86.484-1.555.789-.696.305-1.493.458-2.39.458z"/>
</svg>
