<svg xmlns="http://www.w3.org/2000/svg" width="24" height="24" viewBox="0 0 24 24">
    <path fill="#F3423C" d="M11.96 20.2c2.019 0 3.43-.178 4.234-.533.803-.355 1.238-.567 1.304-.636.08-.054.14-.126.18-.215.04-.089.06-.18.06-.276v-5.7c0-.04-.004-.085-.01-.133-.007-.048-.024-.092-.05-.133l2.59-1.394v4.592c-.186.123-.34.284-.459.482-.12.198-.179.42-.179.666 0 .355.123.663.369.922.245.26.547.39.906.39s.66-.13.907-.39c.245-.26.368-.567.368-.922 0-.246-.06-.468-.18-.666-.119-.198-.271-.359-.457-.482v-5.289l.318-.164c.107-.055.19-.137.25-.246.06-.11.089-.219.089-.328 0-.123-.03-.236-.09-.338-.06-.103-.136-.188-.229-.257L12.28 3.882c-.093-.055-.196-.082-.309-.082-.113 0-.216.027-.309.082L2.12 9.171c-.093.055-.17.133-.23.236-.06.102-.089.215-.089.338 0 .123.03.236.09.338.06.103.142.181.249.236l4.183 2.296c-.026.041-.046.089-.06.143-.013.055-.02.11-.02.165v5.555c0 .096.017.188.05.277.034.089.09.16.17.215.066.068.494.29 1.285.666.79.376 2.194.564 4.213.564zm0-5.986l-8.208-4.49 8.228-4.53 8.228 4.53-8.248 4.49zm0 4.674c-1.341 0-2.36-.096-3.058-.287-.697-.191-1.159-.348-1.384-.471V13.27l4.143 2.255c.04.027.087.048.14.062.053.013.106.02.16.02.052 0 .102-.007.149-.02.046-.014.096-.035.149-.062l4.203-2.275v4.899c-.252.123-.73.277-1.434.461-.704.185-1.726.277-3.068.277z"/>
</svg>
