<svg xmlns="http://www.w3.org/2000/svg" width="24" height="24" viewBox="0 0 24 24">
    <path fill="#F3423C" d="M15.73 22.25L14.715 21H3.25v-1.27c0-.247.068-.42.205-.517.137-.098.238-.166.303-.205l5.488-2.598c.195-.091.358-.224.488-.4.13-.176.209-.368.235-.576.026-.222 0-.43-.078-.625-.079-.196-.202-.365-.371-.508-.652-.521-1.133-1.257-1.446-2.207-.312-.95-.469-1.732-.469-2.344V6.625c0-.326.13-.67.391-1.035.26-.365.6-.703 1.016-1.016.416-.312.885-.57 1.406-.771.52-.202 1.042-.303 1.562-.303.534 0 1.062.1 1.582.303.521.202.99.455 1.407.761.416.306.752.642 1.006 1.006.254.365.38.716.38 1.055V9.75c0 .599-.14 1.377-.42 2.334-.28.957-.751 1.696-1.415 2.217-.17.143-.297.316-.381.517-.085.202-.114.407-.088.616.026.22.104.42.234.595.13.176.293.31.488.4l3.165 1.505.742-1.055-3.38-1.582c.43-.339.792-.749 1.085-1.23.293-.482.53-.98.713-1.495.182-.514.312-1.019.39-1.513.078-.495.117-.931.117-1.309V6.625c0-.52-.162-1.042-.488-1.563-.325-.52-.755-.99-1.289-1.406-.534-.416-1.136-.755-1.807-1.015-.67-.26-1.35-.391-2.04-.391s-1.371.13-2.042.39c-.67.261-1.272.6-1.806 1.016-.534.417-.964.886-1.29 1.406-.325.521-.488 1.042-.488 1.563V9.75c0 .339.043.752.127 1.24.085.489.222.993.41 1.514.19.52.434 1.025.733 1.514.3.488.664.908 1.094 1.26L3.23 17.874l-.615.361c-.41.241-.615.537-.615.889V21c0 .339.12.632.361.879s.53.371.87.371h12.5zm2.598-.078c.17 0 .32-.059.45-.176.025-.026.048-.055.068-.088.02-.032.036-.068.049-.107l2.988-4.551c.104-.13.146-.28.127-.45-.02-.168-.101-.305-.244-.41-.13-.117-.284-.162-.46-.136-.175.026-.315.104-.42.234l-2.675 4.082-1.66-1.66c-.117-.13-.264-.195-.44-.195-.175 0-.322.065-.44.195-.116.117-.175.26-.175.43 0 .17.059.319.176.45l2.207 2.206c.13.117.28.176.45.176z"/>
</svg>
