<svg xmlns="http://www.w3.org/2000/svg" width="24" height="24" viewBox="0 0 24 24">
    <path fill="#F3423C" d="M17.23 21.7c.143 0 .286-.02.43-.059.142-.039.279-.104.41-.195.22-.157.386-.359.497-.606.11-.248.14-.502.088-.763l-.879-5.3 3.806-3.813c.195-.196.322-.421.38-.675.059-.254.05-.505-.029-.753-.091-.26-.24-.476-.449-.645-.208-.17-.442-.274-.702-.313l-5.21-.763-2.265-4.713c-.117-.248-.292-.443-.526-.587-.235-.143-.495-.215-.781-.215-.286 0-.546.072-.78.215-.235.144-.41.34-.527.587L8.429 7.815l-5.21.763c-.26.039-.495.146-.703.322-.208.176-.358.388-.45.636-.077.248-.087.499-.028.753.058.254.185.479.38.675l3.806 3.813-.879 5.3c-.052.26-.022.515.088.763.11.247.277.45.498.606.13.091.263.156.4.195.137.04.283.059.439.059.117 0 .234-.013.351-.04.117-.025.228-.07.332-.136L12 19.079l4.527 2.445c.118.065.235.11.352.137.117.026.234.039.351.039zm.176-1.134L12 17.67l-5.406 2.895.898-5.28.137-.88-4.41-4.42 6.088-.9.41-.84L12 3.492l2.674 5.593 6.108.9-4.41 4.42.136.88.898 5.28z"/>
</svg>
