<svg xmlns="http://www.w3.org/2000/svg" width="24" height="24" viewBox="0 0 24 24">
    <path fill="#F3423C" d="M7.557 22c.117 0 .224-.03.322-.088.097-.058.172-.14.224-.244l3.195-5.957c.117.013.234.023.351.03.117.006.234.009.351.009.104 0 .211-.003.322-.01.11-.006.217-.016.321-.03l3.254 5.958c.052.104.127.186.224.244.098.059.205.088.322.088h.058c.117-.013.225-.055.322-.127.097-.072.166-.166.205-.283l1.071-2.988 3.138.703c.117.039.234.035.35-.01.117-.046.208-.114.273-.205.078-.104.124-.218.137-.342.013-.124-.013-.238-.078-.342l-3.644-6.758c.182-.43.325-.875.428-1.337.104-.463.156-.941.156-1.436 0-.95-.182-1.842-.545-2.676-.364-.833-.854-1.562-1.472-2.187-.617-.625-1.34-1.117-2.172-1.475C13.838 2.18 12.948 2 12 2s-1.838.179-2.67.537c-.831.358-1.559.85-2.182 1.475-.624.625-1.114 1.354-1.471 2.187-.358.834-.536 1.725-.536 2.676 0 .508.052 1 .156 1.475.103.475.253.927.448 1.357l-3.664 6.7c-.065.103-.09.217-.078.341.01.093.038.176.084.25l.053.072c.065.104.156.18.272.225.117.045.234.049.351.01l3.138-.703 1.071 2.988c.04.117.108.211.205.283.097.072.211.114.341.127h.039zM12 14.5c-.78 0-1.507-.15-2.183-.45-.675-.299-1.27-.702-1.783-1.21-.513-.508-.915-1.104-1.208-1.787-.292-.684-.438-1.41-.438-2.178s.146-1.494.438-2.178c.293-.683.695-1.279 1.208-1.787C8.548 4.402 9.142 4 9.817 3.7c.676-.3 1.404-.45 2.183-.45.766 0 1.49.15 2.173.45.682.299 1.276.702 1.783 1.21.506.508.906 1.104 1.198 1.787.293.684.439 1.41.439 2.178s-.146 1.494-.439 2.178c-.292.683-.692 1.279-1.198 1.787-.507.508-1.101.911-1.783 1.21-.682.3-1.407.45-2.173.45zm4.326 5.352l-2.397-4.375c.728-.222 1.4-.554 2.017-.997.617-.442 1.147-.963 1.588-1.562l2.631 4.863-2.319-.527c-.156-.04-.302-.02-.438.058-.137.079-.237.19-.302.333l-.78 2.207zm-8.652-.02l-.78-2.187c-.065-.144-.165-.254-.302-.332-.136-.079-.282-.098-.438-.06l-2.319.528 2.65-4.824c.429.586.945 1.094 1.55 1.523.604.43 1.263.756 1.977.977l-2.338 4.375z"/>
</svg>
