<svg xmlns="http://www.w3.org/2000/svg" width="24" height="24" viewBox="0 0 24 24">
    <path fill="#F3423C" d="M20.75 22.23c.339 0 .628-.12.87-.36.24-.242.36-.531.36-.87v-1.895c0-.364-.205-.66-.615-.888l-.615-.342-5.45-2.598c.43-.338.795-.745 1.095-1.22.299-.476.54-.97.722-1.485.182-.514.313-1.019.39-1.513.079-.495.118-.931.118-1.309V6.625c0-.52-.166-1.042-.498-1.563-.332-.52-.762-.99-1.29-1.406-.526-.416-1.125-.755-1.796-1.015-.67-.26-1.35-.391-2.041-.391-.69 0-1.374.13-2.05.39-.678.261-1.28.6-1.807 1.016-.528.417-.954.886-1.28 1.406-.325.521-.488 1.042-.488 1.563V9.75c0 .339.04.752.117 1.24.078.489.212.99.4 1.504.19.514.434 1.019.733 1.514.3.495.67.918 1.113 1.27L3.25 17.874l-.625.361c-.417.241-.625.53-.625.87V21c0 .339.12.628.361.87.241.24.537.36.889.36h17.5zM3.25 21v-1.27c0-.26.068-.439.205-.537.137-.097.244-.16.322-.185l5.489-2.598c.195-.091.354-.224.478-.4.124-.176.205-.368.244-.576.026-.222-.003-.433-.088-.635-.084-.202-.211-.368-.38-.498-.652-.521-1.13-1.257-1.436-2.207-.306-.95-.459-1.732-.459-2.344V6.625c0-.326.127-.67.38-1.035.255-.365.59-.703 1.007-1.016.416-.312.885-.57 1.406-.771C10.938 3.6 11.466 3.5 12 3.5c.52 0 1.045.1 1.572.303.528.202.996.455 1.407.761.41.306.745.642 1.005 1.006.26.365.391.716.391 1.055V9.75c0 .599-.14 1.377-.42 2.334-.28.957-.758 1.696-1.435 2.217-.17.13-.297.296-.381.498-.085.202-.114.413-.088.635.026.22.104.42.234.595.13.176.293.31.488.4l5.45 2.579c.013 0 .1.042.263.127.163.084.244.296.244.635v1.21L3.25 21z"/>
</svg>
