<svg xmlns="http://www.w3.org/2000/svg" width="24" height="24" viewBox="0 0 24 24">
    <path fill="#F3423C" d="M20.945 18.878c.287 0 .534-.1.742-.302.209-.202.313-.452.313-.752v-1.56c0-.313-.176-.566-.527-.762l-.528-.292-3.984-2.186c.73-.572 1.23-1.336 1.504-2.292.273-.956.41-1.747.41-2.371V5.727c0-.442-.137-.885-.41-1.327-.274-.442-.632-.839-1.074-1.19-.443-.351-.948-.64-1.514-.869C15.311 2.114 14.734 2 14.148 2c-.755 0-1.49.182-2.207.546-.716.365-1.302.813-1.757 1.347l.8.039c.274.013.534.058.782.136.325-.247.693-.442 1.103-.585.41-.143.837-.215 1.28-.215.91 0 1.718.293 2.421.878.703.586 1.055 1.113 1.055 1.58v2.635c0 .481-.107 1.109-.322 1.883-.215.774-.59 1.376-1.123 1.805-.17.13-.297.292-.381.488-.085.195-.114.396-.088.604.013.209.078.4.195.576.117.176.267.316.45.42l3.984 2.165c.026.013.049.023.068.03.02.006.036.016.049.029.052.013.104.036.156.068l.137.088v1.112h-2.52c.183.143.316.319.4.527.085.208.167.449.245.722h2.07zM16.57 22c.287 0 .534-.1.742-.302.209-.202.313-.452.313-.752v-1.58c0-.312-.176-.566-.527-.761l-.528-.293-3.925-2.166c.729-.585 1.22-1.353 1.474-2.302.254-.95.381-1.743.381-2.38V8.828c0-.442-.133-.881-.4-1.317-.267-.436-.619-.83-1.055-1.18-.436-.352-.934-.638-1.494-.859-.56-.221-1.133-.332-1.719-.332-.573 0-1.143.111-1.709.332-.566.221-1.07.507-1.514.859-.442.35-.8.744-1.074 1.18-.273.436-.41.875-.41 1.317v2.634c0 .573.143 1.347.43 2.322.286.976.8 1.756 1.543 2.342l-4.043 2.185-.528.312c-.351.209-.527.456-.527.742v1.58c0 .3.104.55.313.752.208.201.455.302.742.302H16.57zm-.195-1.249H3.25V19.64l.146-.098c.06-.039.114-.065.167-.078.013-.013.026-.022.039-.029.013-.006.026-.01.039-.01l4.043-2.204c.182-.092.332-.225.449-.4.117-.176.182-.368.195-.576.026-.208-.003-.41-.088-.605-.084-.195-.205-.358-.361-.488-.534-.416-.918-1.011-1.152-1.785-.235-.774-.352-1.408-.352-1.903V8.83c0-.455.355-.975 1.064-1.56.71-.586 1.508-.879 2.393-.879.911 0 1.709.293 2.393.878.683.586 1.025 1.106 1.025 1.561v2.634c0 .495-.098 1.129-.293 1.903-.195.774-.56 1.369-1.094 1.785-.169.13-.296.293-.38.488-.085.195-.115.397-.088.605.013.208.078.4.195.576.117.175.267.315.45.419l3.925 2.166c.026.013.049.026.068.039.02.013.036.02.049.02l.156.077c.052.026.098.059.137.098v1.112z"/>
</svg>
