<svg xmlns="http://www.w3.org/2000/svg" width="24" height="24" viewBox="0 0 24 24">
    <path fill="#F3423C" d="M6.375 20.7c.078 0 .153-.013.225-.039.071-.026.14-.071.205-.136l3.613-3.534H20.75c.352 0 .648-.12.889-.36.24-.239.361-.533.361-.883V4.543c0-.35-.12-.644-.361-.884s-.537-.359-.889-.359H3.25c-.352 0-.648.12-.889.36-.24.239-.361.533-.361.883v11.205c0 .35.12.644.361.884s.537.359.889.359h2.5v3.088c0 .129.033.246.098.35.065.103.156.18.273.232.04.013.078.023.117.03.04.006.085.009.137.009zM7 18.603v-2.855H3.25V4.543h17.5v11.205H9.91L7 18.603zM17.625 8.29c.17 0 .316-.062.44-.185.123-.123.185-.268.185-.437 0-.168-.062-.314-.186-.437-.123-.123-.27-.184-.439-.184H6.375c-.17 0-.316.061-.44.184-.123.123-.185.27-.185.437 0 .169.062.314.186.437.123.123.27.185.439.185h11.25zm0 2.486c.17 0 .316-.062.44-.185.123-.123.185-.269.185-.437 0-.168-.062-.314-.186-.437-.123-.123-.27-.184-.439-.184H6.375c-.17 0-.316.061-.44.184-.123.123-.185.269-.185.437 0 .168.062.314.186.437.123.123.27.185.439.185h11.25zm-3.75 2.485c.17 0 .316-.061.44-.184.123-.123.185-.269.185-.437 0-.168-.062-.314-.186-.437-.123-.123-.27-.185-.439-.185h-7.5c-.17 0-.316.062-.44.185-.123.123-.185.269-.185.437 0 .168.062.314.186.437.123.123.27.184.439.184h7.5z"/>
</svg>
