<svg xmlns="http://www.w3.org/2000/svg" width="24" height="24" viewBox="0 0 24 24">
    <path fill="#F3423C" d="M12 22c1.38 0 2.679-.26 3.896-.781 1.218-.521 2.28-1.234 3.184-2.139.905-.905 1.618-1.966 2.139-3.184C21.739 14.68 22 13.38 22 12s-.26-2.679-.781-3.896c-.521-1.218-1.234-2.28-2.139-3.184-.905-.905-1.966-1.618-3.184-2.139C14.68 2.261 13.38 2 12 2s-2.679.26-3.896.781c-1.218.521-2.28 1.234-3.184 2.139-.905.905-1.618 1.966-2.139 3.184C2.261 9.32 2 10.62 2 12s.26 2.679.781 3.896c.521 1.218 1.234 2.28 2.139 3.184.905.905 1.966 1.618 3.184 2.139C9.32 21.739 10.62 22 12 22zm0-1.23c-1.21 0-2.347-.232-3.408-.694-1.061-.462-1.986-1.09-2.774-1.885-.787-.794-1.412-1.722-1.875-2.783-.462-1.061-.693-2.197-.693-3.408 0-1.21.231-2.347.693-3.408.463-1.061 1.088-1.986 1.875-2.774.788-.787 1.713-1.412 2.774-1.875C9.653 3.481 10.789 3.25 12 3.25c1.21 0 2.347.231 3.408.693 1.061.463 1.986 1.088 2.774 1.875.787.788 1.412 1.713 1.875 2.774.462 1.061.693 2.197.693 3.408 0 1.21-.231 2.347-.693 3.408-.463 1.061-1.088 1.99-1.875 2.783-.788.795-1.713 1.423-2.774 1.885-1.061.462-2.197.694-3.408.694zm-1.865-5c.176 0 .322-.066.44-.196l.038-.039.04-.039 6.23-6.27c.117-.117.176-.263.176-.439s-.059-.322-.176-.44c-.13-.13-.28-.195-.45-.195-.169 0-.318.065-.449.196l-5.859 5.898-2.637-2.637c-.13-.13-.28-.195-.449-.195-.17 0-.319.065-.45.195-.116.118-.175.264-.175.44s.059.322.176.44l3.105 3.085c.117.13.264.196.44.196z"/>
</svg>
