<svg xmlns="http://www.w3.org/2000/svg" width="24" height="24" viewBox="0 0 24 24">
    <path fill="#F3423C" d="M13.191 21c.13 0 .241-.046.332-.137l.098-.156c.091-.078.127-.179.108-.302-.02-.124-.075-.231-.166-.322l-1.504-1.346h8.691c.352 0 .648-.124.889-.371.24-.247.361-.54.361-.878V6.248c0-.35-.12-.646-.361-.887-.241-.24-.537-.361-.889-.361H3.25c-.352 0-.648.12-.889.361-.24.24-.361.537-.361.888v11.239c0 .338.12.63.361.878.241.247.537.37.889.37h3.125c.195 0 .348-.09.459-.273.11-.182.166-.299.166-.35 0-.066-.052-.19-.156-.372-.104-.182-.26-.273-.469-.273H4.012c-.209 0-.388-.071-.537-.214-.15-.143-.225-.319-.225-.527V7.029c0-.208.075-.387.225-.536.15-.15.328-.225.537-.225l15.976-.02c.209 0 .388.076.537.225.15.15.225.329.225.537v9.717c0 .208-.075.384-.225.527-.15.143-.328.214-.537.214h-7.87l1.484-1.346c.09-.078.146-.179.166-.302.02-.124-.017-.231-.108-.322l-.098-.157c-.09-.09-.201-.136-.332-.136-.13 0-.24.045-.332.136l-2.539 2.322-.175.157c-.04.039-.072.087-.098.146-.026.058-.04.114-.04.166 0 .065.014.123.04.175.026.052.059.104.098.156l.175.157 2.5 2.243c.092.091.202.137.332.137z"/>
</svg>
